<!--?xml version="1.0" standalone="no"?-->
              <svg id="sw-js-blob-svg" viewBox="0 0 100 100" xmlns="http://www.w3.org/2000/svg" version="1.1">
                    <defs> 
                        <linearGradient id="sw-gradient" x1="0" x2="1" y1="1" y2="0">
                            <stop id="stop1" stop-color="rgba(248, 55, 238.466, 1)" offset="0%"></stop>
                            <stop id="stop2" stop-color="rgba(31, 232.369, 251, 1)" offset="100%"></stop>
                        </linearGradient>
                    </defs>
                <path fill="url(#sw-gradient)" d="M9.2,-10C15.8,-5.3,27.9,-6.2,32.2,-2.6C36.5,1,33,9,29,17.4C24.9,25.8,20.3,34.5,14.7,33.5C9.1,32.5,2.6,21.8,-2.6,16C-7.8,10.3,-11.6,9.6,-18.1,6.5C-24.7,3.3,-34,-2.2,-36.8,-10C-39.6,-17.8,-35.8,-27.9,-28.5,-32.5C-21.3,-37.1,-10.7,-36.1,-4.7,-30.5C1.3,-24.9,2.5,-14.7,9.2,-10Z" width="100%" height="100%" transform="translate(50 50)" stroke-width="0" style="transition: all 0.3s ease 0s;" stroke="url(#sw-gradient)"></path>
              </svg>